<svg width="56" height="35" fill="none" xmlns="http://www.w3.org/2000/svg">
  <path d="M6.094 15.5727C6.57549 15.4327 7.09247 15.4843 7.53673 15.7168L9.95548 16.9827L15.5555 19.1537L21.7777 22.4102L23.9925 23.5693C24.584 23.8789 25.2316 24.0669 25.897 24.1221L37.9554 25.1239L53.8412 25.6017C54.6109 25.6248 54.9527 26.58 54.3724 27.0862C54.2182 27.2207 54.0204 27.2948 53.8158 27.2948H52.8887H53.3157C53.4416 27.2948 53.5632 27.3404 53.6581 27.4232C54.0268 27.7448 53.789 28.3513 53.3 28.3366L36.711 27.8376L24.0501 26.3316C23.372 26.251 22.7176 26.0322 22.1272 25.6889L16.17 22.2248C15.7624 21.9877 15.3232 21.8095 14.8657 21.6955L7.07629 19.7542C6.92209 19.7158 6.7723 19.6615 6.62929 19.5922L5.78931 19.1852C4.18879 18.4096 4.38619 16.0692 6.094 15.5727Z" fill="#2D635E"/>
  <path d="M10.0201 29.1622C9.99378 29.1384 10.0063 29.0947 10.0412 29.0885L13.2561 28.5132C13.7492 28.425 14.2263 28.2631 14.6714 28.0331L16.8 26.9328L20.1749 24.847C21.0305 24.3182 22.0164 24.0381 23.0222 24.0381C23.5989 24.0381 24.1201 23.6948 24.3479 23.1651L24.5909 22.5999C24.5931 22.5948 24.5988 22.5922 24.6041 22.5941L29.1828 24.1916C30.0128 24.4812 30.3495 25.4738 29.867 26.2085C29.8668 26.2089 29.8665 26.2093 29.8664 26.2097C29.2688 27.6256 28.2816 28.8468 27.0213 29.7262L26.7542 29.9126C26.1464 30.3367 25.49 30.6864 24.7989 30.9543L22.1059 31.9984C18.0577 33.3401 13.6007 32.4011 10.4379 29.5401L10.0201 29.1622Z" fill="#2D635E"/>
  <path d="M27 8C27 8 26 8 26 8L26 12 25 15 25 17C24 19 24 21 24 23 24 23 24 23 24 23L25 24 25 25C25 25 25 25 25 25L26 25C27 25 27 26 27 26L28 26C28 27 30 26 30 25 30 25 30 25 30 25L30 24C31 22 31 19 30 17L30 17C30 15 29 13 28 11L27 8ZM2 6C3 5 5 4 7 3L9 3C10 2 11 2 13 1L15 0C15 0 15 0 15 0L15 1C15 5 13 9 9 11 8 12 7 14 8 15L8 17C8 17 8 17 8 17L8 19C8 19 7 20 7 20 6 20 6 20 6 20L4 19C4 19 4 19 4 19 1 18 0 15 0 13L1 11C1 11 1 11 1 11L1 10C1 10 1 10 1 10 1 9 1 8 2 6L2 6Z" fill="#2D635E"/>
  <path d="M4 7C4 8 3 9 3 9 3 10 3 9 3 9 3 9 3 9 3 8 2 8 3 7 3 7 3 7 4 7 4 6 4 5 6 6 5 6 5 6 4 6 4 6 5 6 5 7 4 7ZM14 31C14 31 15 31 16 31 16 31 16 31 16 31 16 31 16 31 15 31 15 31 14 31 14 31 14 31 14 31 13 31 12 30 13 30 13 30 13 30 13 30 13 30 13 30 13 30 14 31Z" fill="#fff" stroke="#fff" stroke-width=".1"/>
</svg>
